<?xml version="1.0" encoding="iso-8859-1"?>
<!-- Generator: Adobe Illustrator 19.0.0, SVG Export Plug-In . SVG Version: 6.00 Build 0)  -->
<svg version="1.1" id="Layer_1" xmlns="http://www.w3.org/2000/svg" xmlns:xlink="http://www.w3.org/1999/xlink" x="0px" y="0px"
	 viewBox="0 0 511.999 511.999" style="enable-background:new 0 0 511.999 511.999;" xml:space="preserve">
<polygon style="fill:#CCCCCC;" points="303.529,502.77 208.452,502.77 216.414,469.61 224.105,437.619 287.889,437.619 
	295.567,469.61 "/>
<polygon style="fill:#999999;" points="295.567,469.61 216.414,469.61 224.105,437.619 249.981,405.898 287.889,437.619 "/>
<path style="fill:#CCCCCC;" d="M509.529,95.827v308.238c0,18.53-15.024,33.554-33.554,33.554H36.018
	c-18.53,0-33.554-15.024-33.554-33.554V95.827c0-18.53,15.024-33.554,33.554-33.554h439.956
	C494.506,62.273,509.529,77.296,509.529,95.827z"/>
<path style="fill:#E6E6E6;" d="M509.529,95.827v308.238c0,18.53-15.024,33.554-33.554,33.554H206.422l105.24-375.346h164.313
	C494.506,62.273,509.529,77.296,509.529,95.827z"/>
<rect x="2.47" y="108.303" style="fill:#9BD7F4;" width="507.065" height="283.284"/>
<polygon style="fill:#C8EDFC;" points="509.529,108.303 509.529,391.588 219.33,391.588 298.754,108.303 "/>
<rect x="178.472" y="493.542" style="fill:#E6E6E6;" width="155.048" height="18.457"/>
<rect x="2.47" y="102.766" style="fill:#B3B3B3;" width="507.065" height="11.074"/>
<rect x="232.44" y="343.195" style="fill:#F94B54;" width="165.457" height="46.142"/>
<g>
	<rect x="96.045" style="fill:#F9C573;" width="43.828" height="47.569"/>
	<rect x="96.045" y="68.979" style="fill:#F9C573;" width="43.828" height="320.358"/>
</g>
<polygon style="fill:#808080;" points="345.817,220.651 286.602,154.444 286.602,51.26 274.298,51.26 274.298,154.499 
	216.894,220.723 226.191,228.782 280.523,166.103 336.644,228.853 "/>
<rect x="2.47" y="386.998" style="fill:#B3B3B3;" width="507.065" height="11.074"/>
<rect x="201.248" y="207.858" style="fill:#F94B54;" width="160.29" height="46.142"/>
<polygon style="fill:#F9C573;" points="139.867,34.981 96.039,34.981 64.159,34.981 64.159,78.822 96.039,78.822 139.867,78.822 
	312.327,78.822 312.327,34.981 "/>
<rect x="96.045" y="78.822" style="fill:#E2AB5A;" width="43.828" height="15.996"/>
<g>
</g>
<g>
</g>
<g>
</g>
<g>
</g>
<g>
</g>
<g>
</g>
<g>
</g>
<g>
</g>
<g>
</g>
<g>
</g>
<g>
</g>
<g>
</g>
<g>
</g>
<g>
</g>
<g>
</g>
</svg>
